# xmcd
#
# Track frame offsets: 
#        150
#        17193
#        31900
#        48938
#        67381
#        84105
#        107758
#        124922
#        143050
#        159795
#        174265
#        193280
#        210318
#
# Disc length: 3044 seconds
#
# Revision: 0
# Processed by: cddbd v1.5.2PL0 Copyright (c) Steve Scherf et al.
# Submitted via: ExactAudioCopy v0.99pb3
#
DISCID=a90be20d
DTITLE=The Bart Crow Band - Desperate Hearts
DYEAR=2008
DGENRE=Texas Country
TTITLE0=Driftin' In The Wind
TTITLE1=Back Down
TTITLE2=Hollywood
TTITLE3=Understand
TTITLE4=St. Valentine
TTITLE5=Sweet Imitations
TTITLE6=Roses
TTITLE7=Once A Day
TTITLE8=Desperate Hearts
TTITLE9=Change
TTITLE10=New York
TTITLE11=Tame
TTITLE12=Forever
EXTD=
EXTT0=
EXTT1=
EXTT2=
EXTT3=
EXTT4=
EXTT5=
EXTT6=
EXTT7=
EXTT8=
EXTT9=
EXTT10=
EXTT11=
EXTT12=
PLAYORDER=
